<svg width="1098px" height="474px" viewBox="0 0 1098 474" version="1.1" xmlns="http://www.w3.org/2000/svg" xmlns:xlink="http://www.w3.org/1999/xlink">
    <g id="Symbols" stroke="none" stroke-width="1" fill="none" fill-rule="evenodd">
        <g id="DC-Logo-white" transform="translate(936.000000, -81.000000)" fill="#000000">
            <g id="Group-27" transform="translate(-935.999800, 81.000000)">
                <path d="M477.5828,337.1572 L477.5828,331.9492 C477.5828,315.8592 466.3538,310.0672 454.3178,310.0672 C431.1638,310.0672 428.1528,328.7092 428.1528,351.1612 C428.1528,373.6202 431.1638,392.2612 454.3178,392.2612 C466.3538,392.2612 477.5828,386.6982 477.5828,370.3802 L477.5828,365.1722 L466.0058,365.1722 L466.0058,370.3802 C466.0058,377.4442 461.4938,380.7952 454.3178,380.7952 C441.3498,380.7952 439.7298,369.1072 439.7298,351.1612 C439.7298,333.2212 441.3498,321.5332 454.3178,321.5332 C461.6118,321.5332 466.1248,324.5442 466.1248,331.9492 L466.1248,337.1572 L477.5828,337.1572 Z" id="Fill-1"></path>
                <path d="M538.2303,351.1641 C538.2303,369.2221 536.7293,380.7991 523.4133,380.7991 C510.2153,380.7991 508.9433,369.2221 508.9433,351.1641 C508.9433,333.2261 510.2153,321.5291 523.4133,321.5291 C536.7293,321.5291 538.2303,333.2261 538.2303,351.1641 M497.2553,351.1641 C497.2553,373.7341 500.0293,392.2581 523.4133,392.2581 C546.7963,392.2581 549.9183,373.7341 549.9183,351.1641 C549.9183,328.5951 546.7963,310.0711 523.4133,310.0711 C500.0293,310.0711 497.2553,328.5951 497.2553,351.1641" id="Fill-3"></path>
                <path d="M583.5916,322.1074 L590.6556,322.1074 C603.6236,322.1074 605.4736,329.4014 605.4736,338.3154 C605.4736,347.3404 603.6236,353.9394 590.6556,354.4054 L583.5916,354.4054 L583.5916,322.1074 Z M583.5916,365.9824 L592.1576,365.9824 L606.1686,391.6814 L619.2476,391.6814 L603.9716,363.4374 C615.0826,358.4594 617.1686,347.4594 617.1686,338.3154 C617.1686,326.1614 613.5736,310.6484 590.6556,310.6484 L571.9036,310.6484 L571.9036,391.6814 L583.5916,391.6814 L583.5916,365.9824 Z" id="Fill-5"></path>
                <polygon id="Fill-7" points="676.9959 322.1074 676.9959 310.6484 638.9129 310.6484 638.9129 391.6814 677.8089 391.6814 677.8089 380.2224 650.6079 380.2224 650.6079 358.6884 672.6009 358.6884 672.6009 347.2294 650.6079 347.2294 650.6079 322.1074"></polygon>
                <path d="M39.096,240.9053 L19.84,240.9053 L19.84,142.0733 L39.096,142.0733 C60.904,142.0733 64.248,161.3293 64.248,191.3933 C64.248,221.8423 60.904,240.1133 39.096,240.9053 M39.096,122.6253 L0,122.6253 L0,260.1533 L39.096,260.1533 C78,260.1533 84.088,229.5053 84.088,191.3933 C84.088,153.2733 78,122.6253 39.096,122.6253" id="Fill-9"></path>
                <polygon id="Fill-11" points="141.2561 204.1616 178.5841 204.1616 178.5841 184.7136 141.2561 184.7136 141.2561 142.0736 186.0481 142.0736 186.0481 122.6256 121.4081 122.6256 121.4081 260.1536 187.4241 260.1536 187.4241 240.7046 141.2561 240.7046"></polygon>
                <path d="M265.2195,183.1382 C252.0525,178.2262 239.4835,173.1222 239.4835,159.7622 C239.4835,148.5622 247.9245,141.0902 260.6995,141.0902 C274.0595,141.0902 280.3475,149.7382 280.3475,160.5462 L280.3475,169.3862 L300.1875,169.3862 L300.1875,160.5462 C300.1875,150.1302 294.4915,121.6422 260.6995,121.6422 C225.7235,121.6422 219.6355,149.1462 219.6355,159.7622 C219.6355,187.8582 239.0835,195.3222 257.1635,202.3942 C270.1315,207.3062 282.3075,212.2182 282.3075,224.7942 C282.3075,230.2902 279.9555,241.6902 262.4675,241.6902 C243.9955,241.6902 237.5155,232.2582 237.5155,221.4502 L237.5155,212.6102 L217.8675,212.6102 L217.8675,221.4502 C217.8675,227.1462 218.6525,261.1382 262.4675,261.1382 C293.1155,261.1382 302.1555,242.0822 302.1555,224.7942 C302.1555,197.2822 283.2915,189.8182 265.2195,183.1382" id="Fill-13"></path>
                <polygon id="Fill-15" points="352.0501 260.1533 371.8901 260.1533 371.8901 142.0733 399.2021 142.0733 399.2021 122.6253 324.7381 122.6253 324.7381 142.0733 352.0501 142.0733"></polygon>
                <polygon id="Fill-17" points="430.6268 260.154 450.4668 260.154 450.4668 122.626 430.6268 122.626"></polygon>
                <polygon id="Fill-19" points="574.0496 260.1533 574.0496 122.6253 554.4016 122.6253 554.4016 213.2013 508.4256 122.6253 489.7616 122.6253 489.7616 260.1533 509.6096 260.1533 509.6096 169.7773 555.7776 260.1533"></polygon>
                <path d="M640.0545,215.1616 L656.7515,157.2016 C666.1835,190.2096 670.1115,202.7856 673.6475,215.1616 L640.0545,215.1616 Z M685.8305,260.1536 L706.2635,260.1536 L666.9745,122.6256 L646.7355,122.6256 L607.4395,260.1536 L627.8705,260.1536 L634.7505,234.6176 L678.9585,234.6176 L685.8305,260.1536 Z" id="Fill-20"></path>
                <polygon id="Fill-21" points="723.9393 142.0737 751.2513 142.0737 751.2513 260.1537 771.0913 260.1537 771.0913 142.0737 798.4043 142.0737 798.4043 122.6257 723.9393 122.6257"></polygon>
                <polygon id="Fill-22" points="829.8288 260.154 849.6698 260.154 849.6698 122.626 829.8288 122.626"></polygon>
                <path d="M929.4393,241.6904 C907.0393,241.6904 904.8783,222.0434 904.8783,191.3944 C904.8783,160.9394 907.0393,141.0914 929.4393,141.0914 C952.0313,141.0914 954.5903,160.9394 954.5903,191.3944 C954.5903,222.0434 952.0313,241.6904 929.4393,241.6904 M929.4393,121.6434 C889.7513,121.6434 885.0313,153.0754 885.0313,191.3944 C885.0313,229.7064 889.7513,261.1384 929.4393,261.1384 C969.1273,261.1384 974.4313,229.7064 974.4313,191.3944 C974.4313,153.0754 969.1273,121.6434 929.4393,121.6434" id="Fill-23"></path>
                <polygon id="Fill-24" points="1078.3514 122.6245 1078.3514 213.2005 1032.3834 122.6245 1013.7114 122.6245 1013.7114 260.1535 1033.5594 260.1535 1033.5594 169.7765 1079.7284 260.1535 1097.9994 260.1535 1097.9994 122.6245"></polygon>
                <path d="M406.0198,80.02 C447.9498,38.09 503.6998,15 562.9998,15 C622.2998,15 678.0498,38.09 719.9798,80.02 C720.9598,81 721.9388,82 722.8898,83 L743.1598,83 C739.1598,78.34 734.9698,73.81 730.5798,69.42 C685.8198,24.65 626.2998,0 562.9998,0 C499.6898,0 440.1798,24.65 395.4198,69.42 C391.0298,73.81 386.8398,78.34 382.8398,83 L403.1098,83 C404.0598,82 405.0398,81 406.0198,80.02" id="Fill-25"></path>
                <path d="M719.9803,393.9805 C678.0493,435.9105 622.2993,459.0005 563.0003,459.0005 C503.7003,459.0005 447.9503,435.9105 406.0203,393.9805 C378.1293,366.0895 358.5803,332.0895 348.6093,295.0005 L333.1093,295.0005 C343.4103,336.1205 364.6693,373.8305 395.4193,404.5805 C440.1803,449.3495 499.6893,474.0005 563.0003,474.0005 C626.2993,474.0005 685.8203,449.3495 730.5803,404.5805 C761.3303,373.8305 782.5893,336.1205 792.8893,295.0005 L777.3893,295.0005 C767.4193,332.0895 747.8703,366.0895 719.9803,393.9805" id="Fill-26"></path>
            </g>
        </g>
    </g>
</svg>